<mxfile host="drawio-plugin" modified="2024-01-11T17:00:34.303Z" agent="5.0 (Windows NT 6.2; Win64; x64) AppleWebKit/537.36 (KHTML, like Gecko) Chrome/104.0.5112.102 Safari/537.36" etag="yNqXU-IV14Rn_HFwjBYx" version="20.5.3" type="embed"><diagram id="6D1sk7iszy9OtMH7ZP9b" name="Page-1"><mxGraphModel dx="939" dy="751" grid="1" gridSize="10" guides="1" tooltips="1" connect="1" arrows="1" fold="1" page="1" pageScale="1" pageWidth="850" pageHeight="1100" math="0" shadow="0"><root><mxCell id="0"/><mxCell id="1" parent="0"/><mxCell id="13" value="«interface»&lt;br&gt;Component" style="html=1;fillColor=#60a917;fontColor=#ffffff;strokeColor=#2D7600;" vertex="1" parent="1"><mxGeometry x="290" y="30" width="220" height="50" as="geometry"/></mxCell><mxCell id="14" value="&lt;p style=&quot;margin: 4px 0px 0px;&quot;&gt;+ method:showComponent()&amp;nbsp; &amp;nbsp; &amp;nbsp; &amp;nbsp; &amp;nbsp; &amp;nbsp; void&lt;br&gt;&lt;br&gt;&lt;/p&gt;" style="verticalAlign=top;align=left;overflow=fill;fontSize=12;fontFamily=Helvetica;html=1;fillColor=#6d8764;fontColor=#ffffff;strokeColor=#3A5431;" vertex="1" parent="1"><mxGeometry x="290" y="80" width="220" height="30" as="geometry"/></mxCell><mxCell id="15" value="Order" style="swimlane;fontStyle=1;align=center;verticalAlign=top;childLayout=stackLayout;horizontal=1;startSize=26;horizontalStack=0;resizeParent=1;resizeParentMax=0;resizeLast=0;collapsible=1;marginBottom=0;fillColor=#1ba1e2;fontColor=#ffffff;strokeColor=#006EAF;" vertex="1" parent="1"><mxGeometry x="20" y="160" width="220" height="48" as="geometry"/></mxCell><mxCell id="16" value="+ field: components  List&lt;Component&gt;" style="text;strokeColor=#432D57;fillColor=#76608a;align=left;verticalAlign=top;spacingLeft=4;spacingRight=4;overflow=hidden;rotatable=0;points=[[0,0.5],[1,0.5]];portConstraint=eastwest;fontColor=#ffffff;" vertex="1" parent="15"><mxGeometry y="26" width="220" height="22" as="geometry"/></mxCell><mxCell id="19" value="ToEat" style="swimlane;fontStyle=1;align=center;verticalAlign=top;childLayout=stackLayout;horizontal=1;startSize=26;horizontalStack=0;resizeParent=1;resizeParentMax=0;resizeLast=0;collapsible=1;marginBottom=0;fillColor=#1ba1e2;fontColor=#ffffff;strokeColor=#006EAF;" vertex="1" parent="1"><mxGeometry x="310" y="160" width="180" height="48" as="geometry"/></mxCell><mxCell id="20" value="+ field: name                  String" style="text;strokeColor=#432D57;fillColor=#76608a;align=left;verticalAlign=top;spacingLeft=4;spacingRight=4;overflow=hidden;rotatable=0;points=[[0,0.5],[1,0.5]];portConstraint=eastwest;fontColor=#ffffff;" vertex="1" parent="19"><mxGeometry y="26" width="180" height="22" as="geometry"/></mxCell><mxCell id="23" value="ToDrink" style="swimlane;fontStyle=1;align=center;verticalAlign=top;childLayout=stackLayout;horizontal=1;startSize=26;horizontalStack=0;resizeParent=1;resizeParentMax=0;resizeLast=0;collapsible=1;marginBottom=0;fillColor=#1ba1e2;fontColor=#ffffff;strokeColor=#006EAF;" vertex="1" parent="1"><mxGeometry x="550" y="160" width="180" height="48" as="geometry"/></mxCell><mxCell id="24" value="+ field: name                  String" style="text;strokeColor=#432D57;fillColor=#76608a;align=left;verticalAlign=top;spacingLeft=4;spacingRight=4;overflow=hidden;rotatable=0;points=[[0,0.5],[1,0.5]];portConstraint=eastwest;fontColor=#ffffff;" vertex="1" parent="23"><mxGeometry y="26" width="180" height="22" as="geometry"/></mxCell><mxCell id="27" value="&lt;p style=&quot;margin: 4px 0px 0px;&quot;&gt;+ method:showComponent()&amp;nbsp; &amp;nbsp; &amp;nbsp; &amp;nbsp; &amp;nbsp; &amp;nbsp; void&lt;br&gt;&lt;br&gt;&lt;/p&gt;" style="verticalAlign=top;align=left;overflow=fill;fontSize=12;fontFamily=Helvetica;html=1;fillColor=#6d8764;fontColor=#ffffff;strokeColor=#3A5431;" vertex="1" parent="1"><mxGeometry x="20" y="208" width="220" height="30" as="geometry"/></mxCell><mxCell id="28" value="&lt;p style=&quot;margin: 4px 0px 0px;&quot;&gt;+ method:showComponent()&amp;nbsp; &amp;nbsp; &amp;nbsp; &amp;nbsp; &amp;nbsp; &amp;nbsp; void&lt;br&gt;&lt;br&gt;&lt;/p&gt;" style="verticalAlign=top;align=left;overflow=fill;fontSize=12;fontFamily=Helvetica;html=1;fillColor=#6d8764;fontColor=#ffffff;strokeColor=#3A5431;" vertex="1" parent="1"><mxGeometry x="310" y="208" width="180" height="30" as="geometry"/></mxCell><mxCell id="29" value="&lt;p style=&quot;margin: 4px 0px 0px;&quot;&gt;+ method:showComponent()&amp;nbsp; &amp;nbsp; &amp;nbsp; &amp;nbsp; &amp;nbsp; &amp;nbsp; void&lt;br&gt;&lt;br&gt;&lt;/p&gt;" style="verticalAlign=top;align=left;overflow=fill;fontSize=12;fontFamily=Helvetica;html=1;fillColor=#6d8764;fontColor=#ffffff;strokeColor=#3A5431;" vertex="1" parent="1"><mxGeometry x="550" y="208" width="180" height="30" as="geometry"/></mxCell><mxCell id="30" value="" style="endArrow=block;dashed=1;endFill=0;endSize=12;html=1;rounded=0;entryX=0;entryY=0;entryDx=0;entryDy=0;exitX=0.75;exitY=0;exitDx=0;exitDy=0;fillColor=#60a917;strokeColor=#80FF00;" edge="1" parent="1" source="15" target="14"><mxGeometry width="160" relative="1" as="geometry"><mxPoint x="60" y="144" as="sourcePoint"/><mxPoint x="287.0049999999999" y="60" as="targetPoint"/><Array as="points"/></mxGeometry></mxCell><mxCell id="31" value="" style="endArrow=block;dashed=1;endFill=0;endSize=12;html=1;rounded=0;entryX=0.5;entryY=1;entryDx=0;entryDy=0;exitX=0.5;exitY=0;exitDx=0;exitDy=0;fillColor=#60a917;strokeColor=#80FF00;" edge="1" parent="1" source="19" target="14"><mxGeometry width="160" relative="1" as="geometry"><mxPoint x="50" y="84" as="sourcePoint"/><mxPoint x="277.0049999999999" as="targetPoint"/><Array as="points"><mxPoint x="400" y="130"/></Array></mxGeometry></mxCell><mxCell id="32" value="" style="endArrow=block;dashed=1;endFill=0;endSize=12;html=1;rounded=0;entryX=1;entryY=1;entryDx=0;entryDy=0;exitX=0.5;exitY=0;exitDx=0;exitDy=0;fillColor=#60a917;strokeColor=#80FF00;" edge="1" parent="1" source="23" target="13"><mxGeometry width="160" relative="1" as="geometry"><mxPoint x="530" y="64" as="sourcePoint"/><mxPoint x="757.0049999999999" y="-20" as="targetPoint"/><Array as="points"><mxPoint x="530" y="90"/></Array></mxGeometry></mxCell></root></mxGraphModel></diagram></mxfile>